<svg width="23" height="24" viewBox="0 0 23 24" fill="none" xmlns="http://www.w3.org/2000/svg">
<path d="M4.70026 7.66598C4.70026 10.0038 5.89338 12.0631 7.69837 13.2843C3.70663 14.264 0.875 16.7685 0.875 19.836C0.875 20.5243 1.33178 21.0675 2.02726 21.4908C2.72409 21.9149 3.68641 22.236 4.76034 22.4766C6.91029 22.9581 9.54537 23.125 11.5 23.125C13.4546 23.125 16.0897 22.9581 18.2397 22.4766C19.3136 22.236 20.2759 21.9149 20.9727 21.4908C21.6682 21.0675 22.125 20.5243 22.125 19.836C22.125 16.7685 19.2934 14.264 15.3016 13.2843C17.1066 12.0631 18.2997 10.0038 18.2997 7.66598C18.2997 3.92116 15.2491 0.875 11.5 0.875C7.75089 0.875 4.70026 3.92116 4.70026 7.66598ZM6.32532 7.66598C6.32532 4.81781 8.64685 2.5 11.5 2.5C14.3532 2.5 16.6747 4.81781 16.6747 7.66598C16.6747 10.5141 14.3532 12.8315 11.5 12.8315C8.64684 12.8315 6.32532 10.5141 6.32532 7.66598ZM11.5 21.5C8.70547 21.5 6.47506 21.2052 4.9259 20.8358C4.15083 20.6509 3.54947 20.4482 3.13432 20.256C2.92645 20.1598 2.76902 20.0679 2.66063 19.9847C2.56015 19.9076 2.5157 19.8484 2.50053 19.8116C2.51145 18.3637 3.49355 17.0304 5.11817 16.0511C6.74772 15.0688 9.00471 14.4565 11.5 14.4565C13.995 14.4565 16.2518 15.0687 17.8813 16.0508C19.5061 17.0301 20.4883 18.3633 20.4994 19.8112C20.4847 19.8476 20.4408 19.9066 20.3405 19.9839C20.2325 20.067 20.0754 20.1588 19.8678 20.2551C19.4532 20.4473 18.8521 20.6502 18.077 20.8352C16.5278 21.2049 14.2964 21.5 11.5 21.5Z" fill="#1D1D1B" stroke="black" stroke-width="0.25"/>
</svg>
