<svg width="24" height="24" viewBox="0 0 24 24" fill="none" xmlns="http://www.w3.org/2000/svg">
<path d="M22.4389 0.81875L22.2619 0.650622L22.0896 0.823539L11.9997 10.9495L1.87344 0.823223L1.69667 0.646447L1.51989 0.823223L0.823223 1.51989L0.646761 1.69635L0.822908 1.87313L10.9137 12L0.822908 22.1269L0.646761 22.3036L0.823223 22.4801L1.51989 23.1768L1.69667 23.3536L1.87344 23.1768L11.9997 13.0505L22.0896 23.1765L22.2619 23.3494L22.4389 23.1812L23.1722 22.4846L23.3581 22.3079L23.1768 22.1266L13.0502 12L23.1768 1.87344L23.3581 1.69208L23.1722 1.51542L22.4389 0.81875Z" fill="#010101" stroke="black" stroke-width="0.5"/>
</svg>
