<svg width="22" height="22" viewBox="0 0 22 22" fill="none" xmlns="http://www.w3.org/2000/svg">
<path d="M16.0703 13.4062C16.9297 12.0542 17.4339 10.45 17.4339 8.72552C17.4339 3.90729 13.5323 0 8.71979 0C3.90156 0 0 3.90729 0 8.72552C0 13.5438 3.90156 17.451 8.71406 17.451C10.4615 17.451 12.0885 16.9354 13.4521 16.0531L13.8474 15.7781L20.0693 22L22 20.0349L15.7839 13.813L16.0703 13.4062ZM13.601 3.85C14.9016 5.15052 15.6177 6.88073 15.6177 8.71979C15.6177 10.5589 14.9016 12.2891 13.601 13.5896C12.3005 14.8901 10.5703 15.6062 8.73125 15.6062C6.89219 15.6062 5.16198 14.8901 3.86146 13.5896C2.56094 12.2891 1.84479 10.5589 1.84479 8.71979C1.84479 6.88073 2.56094 5.15052 3.86146 3.85C5.16198 2.54948 6.89219 1.83333 8.73125 1.83333C10.5703 1.83333 12.3005 2.54948 13.601 3.85Z" fill="black"/>
</svg>
