<svg width="24" height="22" viewBox="0 0 24 22" fill="none" xmlns="http://www.w3.org/2000/svg">
<path d="M23.5278 12.7117H8.61281L4.66565 0.0366821H1.60807L0.0792777 1.54663C0.0410841 1.58486 0.0151979 1.63361 0.00493449 1.68662C-0.00532892 1.73964 0.000497847 1.7945 0.0216691 1.84419C0.0428404 1.89387 0.0783918 1.93612 0.123769 1.96552C0.169145 1.99491 0.222281 2.01011 0.276369 2.00918H3.23807L7.1799 14.6789H22.2068L23.7143 13.1743C23.7518 13.1367 23.7775 13.0889 23.7881 13.0369C23.7987 12.9848 23.7938 12.9308 23.7739 12.8816C23.7541 12.8323 23.7202 12.79 23.6764 12.7598C23.6327 12.7296 23.581 12.7129 23.5278 12.7117V12.7117Z" fill="black"/>
<path d="M21.7933 3.71265V10.1032H23.7936V1.86694H7.32114V3.71265H21.7933Z" fill="black"/>
<path d="M20.1387 15.594C19.4142 15.593 18.7057 15.7802 18.1028 16.1318C17.5 16.4833 17.0299 16.9835 16.7522 17.569C16.4744 18.1545 16.4014 18.7989 16.5425 19.4207C16.6836 20.0424 17.0323 20.6136 17.5446 21.0619C18.0569 21.5101 18.7096 21.8153 19.4202 21.9387C20.1309 22.0621 20.8673 21.9983 21.5364 21.7552C22.2056 21.5122 22.7772 21.1009 23.179 20.5734C23.5808 20.0459 23.7947 19.426 23.7935 18.792C23.792 17.9443 23.4065 17.1316 22.7214 16.5322C22.0363 15.9327 21.1075 15.5953 20.1387 15.594V15.594ZM20.1387 20.1577C19.8297 20.1586 19.5274 20.0794 19.27 19.9299C19.0126 19.7805 18.8117 19.5675 18.6927 19.3181C18.5737 19.0686 18.542 18.7939 18.6016 18.5287C18.6612 18.2635 18.8094 18.0197 19.0274 17.8282C19.2454 17.6367 19.5235 17.5061 19.8264 17.453C20.1293 17.3999 20.4434 17.4267 20.7289 17.5299C21.0144 17.6331 21.2585 17.8082 21.4303 18.0328C21.602 18.2575 21.6937 18.5217 21.6937 18.792C21.6937 19.1534 21.53 19.5 21.2386 19.7559C20.9471 20.0119 20.5516 20.1563 20.1387 20.1577V20.1577Z" fill="black"/>
<path d="M10.9874 15.594C10.2629 15.593 9.55438 15.7802 8.95153 16.1318C8.34869 16.4833 7.87863 16.9835 7.60087 17.569C7.32311 18.1545 7.25014 18.7989 7.3912 19.4207C7.53226 20.0424 7.88101 20.6136 8.39329 21.0619C8.90557 21.5101 9.55833 21.8153 10.2689 21.9387C10.9795 22.0621 11.716 21.9983 12.3851 21.7552C13.0542 21.5122 13.6259 21.1009 14.0277 20.5734C14.4295 20.0459 14.6434 19.426 14.6422 18.792C14.6407 17.9443 14.2552 17.1316 13.5701 16.5322C12.885 15.9327 11.9562 15.5953 10.9874 15.594V15.594ZM10.9874 20.1577C10.6784 20.1586 10.3761 20.0794 10.1187 19.9299C9.86134 19.7805 9.66042 19.5675 9.54142 19.3181C9.42242 19.0686 9.39071 18.7939 9.45028 18.5287C9.50986 18.2635 9.65805 18.0197 9.87609 17.8282C10.0941 17.6367 10.3722 17.5061 10.6751 17.453C10.978 17.3999 11.2921 17.4267 11.5776 17.5299C11.8631 17.6331 12.1072 17.8082 12.279 18.0328C12.4507 18.2575 12.5424 18.5217 12.5424 18.792C12.5424 19.1534 12.3787 19.5 12.0873 19.7559C11.7958 20.0119 11.4003 20.1563 10.9874 20.1577V20.1577Z" fill="black"/>
</svg>
